<svg xmlns="http://www.w3.org/2000/svg" xmlns:xlink="http://www.w3.org/1999/xlink" viewBox="0,0,256,256" width="96px" height="96px" fill-rule="nonzero"><defs><linearGradient x1="20.762" y1="4.832" x2="10.039" y2="42.364" gradientUnits="userSpaceOnUse" id="color-1"><stop offset="0" stop-color="#000000"></stop><stop offset="1" stop-color="#000000"></stop></linearGradient><linearGradient x1="37.798" y1="4.876" x2="28.098" y2="42.271" gradientUnits="userSpaceOnUse" id="color-2"><stop offset="0" stop-color="#000000"></stop><stop offset="0.246" stop-color="#000000"></stop><stop offset="0.623" stop-color="#000000"></stop><stop offset="1" stop-color="#000000"></stop></linearGradient></defs><g fill="none" fill-rule="nonzero" stroke="none" stroke-width="1" stroke-linecap="butt" stroke-linejoin="miter" stroke-miterlimit="10" stroke-dasharray="" stroke-dashoffset="0" font-family="none" font-weight="none" font-size="none" text-anchor="none" style="mix-blend-mode: normal"><g transform="scale(5.33333,5.33333)"><path d="M7,42l7,-37h12l-1,5h-6.198c-0.469,0 -0.875,0.326 -0.976,0.783l-1.826,8.217h7l-1,5h-5.198c-0.469,0 -0.875,0.326 -0.976,0.783l-3.826,17.217z" fill="url(#color-1)"></path><path d="M30,28h-5l-1.704,7.952c-0.667,3.113 1.706,6.048 4.889,6.048h2.744c3.484,0 6.437,-2.562 6.93,-6.01l0.813,-5.689c0.213,-1.494 -0.062,-3.017 -0.784,-4.342l-4.115,-7.544c-0.502,-0.92 -0.702,-1.975 -0.572,-3.014l0.581,-4.649c0.124,-1.001 0.975,-1.752 1.984,-1.752v0c1.192,0 2.119,1.036 1.988,2.221l-0.754,6.779h5l0.937,-6.088c0.559,-3.634 -2.253,-6.912 -5.931,-6.912h-2.001c-3.455,0 -6.393,2.521 -6.919,5.936l-0.686,4.462c-0.258,1.677 0.102,3.391 1.013,4.823l3.808,5.984c1.139,1.79 1.52,3.959 1.06,6.03l-0.937,4.216c-0.201,0.905 -1.004,1.549 -1.931,1.549v0c-1.248,0 -2.185,-1.142 -1.94,-2.366z" fill="url(#color-2)"></path></g></g></svg>