<?xml version="1.0"?><svg xmlns="http://www.w3.org/2000/svg"  viewBox="0 0 50 50" width="100px" height="100px">    <path d="M 25.005859 1 L 1 25 L 10.837891 34.748047 L 6 39.585938 L 6 47.785156 L 17.097656 40.984375 L 25.005859 49 L 49 25 L 39.960938 15.923828 L 44 11.380859 L 44 3.234375 L 33.523438 9.5195312 L 25.005859 1 z M 42 7.5449219 L 42 10.619141 L 34.472656 19.085938 L 31.884766 18.439453 L 42 7.5449219 z M 37.476562 9.4804688 L 28.115234 19.560547 L 35.443359 21.392578 L 13.6875 34.726562 L 26.414062 22 L 16.611328 22 L 37.476562 9.4804688 z M 37 22.787109 L 37 26.439453 L 8 44.212891 L 8 40.560547 L 37 22.787109 z M 14 24 L 21.585938 24 L 17.585938 28 L 14 28 L 14 24 z"/></svg>