<svg xmlns="http://www.w3.org/2000/svg"  viewBox="0 0 72 72" width="128px" height="128px"><path d="M 21.960938 14.099609 C 20.678938 14.099609 19.537094 14.914953 19.121094 16.126953 L 9.4023438 44.476562 C 9.0473438 45.515562 9.2853906 46.664609 10.025391 47.474609 L 18.666016 56.923828 C 19.234016 57.545828 20.038859 57.900391 20.880859 57.900391 L 32.220703 57.900391 C 33.470703 57.900391 34.590297 57.123125 35.029297 55.953125 L 35.769531 53.880859 L 35.882812 53.880859 L 37.921875 56.699219 C 38.487875 57.455219 39.376312 57.900391 40.320312 57.900391 L 51.119141 57.900391 C 52.396141 57.900391 53.534125 57.091766 53.953125 55.884766 L 62.59375 31.044922 C 62.83675 30.347922 62.812297 29.585297 62.529297 28.904297 L 57.130859 15.945312 C 56.664859 14.827312 55.570375 14.099609 54.359375 14.099609 L 45.179688 14.099609 C 43.999687 14.099609 42.927359 14.790188 42.443359 15.867188 L 40.810547 19.498047 L 39.546875 19.498047 L 35.855469 15.15625 C 35.285469 14.48625 34.450313 14.099609 33.570312 14.099609 L 21.960938 14.099609 z M 24.103516 20.099609 L 31.021484 20.099609 L 29.738281 24.75 L 22.509766 24.75 L 24.103516 20.099609 z M 47.119141 20.099609 L 51.671875 20.099609 L 48.957031 28.75 L 45.515625 28.75 L 46.472656 24.730469 C 46.543656 24.433469 46.474156 24.120859 46.285156 23.880859 C 46.112924 23.663302 45.857838 23.533183 45.583984 23.509766 L 47.119141 20.099609 z M 53.162109 22.025391 L 56.550781 30.15625 L 49.576172 50.205078 L 45.857422 45.306641 L 53.162109 22.025391 z M 38.789062 25.5 L 42.75 25.5 L 44.234375 25.5 L 43.460938 28.75 L 38.015625 28.75 L 38.789062 25.5 z M 21.822266 26.75 L 30.5 26.75 L 32.71875 26.75 L 32.029297 29.507812 C 31.871297 30.138812 32.349 30.75 33 30.75 L 36.748047 30.75 C 36.748705 30.75 36.749342 30.750001 36.75 30.75 L 48.330078 30.75 L 44.25 43.757812 C 44.227036 43.756226 44.204839 43.75 44.181641 43.75 L 35.648438 43.75 L 37.242188 39.072266 L 38.943359 34.080078 C 39.125359 33.559078 38.851078 32.989641 38.330078 32.806641 C 37.809078 32.624641 37.239641 32.898922 37.056641 33.419922 L 35.541016 37.75 L 28.447266 37.75 L 29.695312 34.072266 C 29.874313 33.549266 29.595266 32.982687 29.072266 32.804688 C 28.551266 32.625688 27.981687 32.905734 27.804688 33.427734 L 27.011719 35.75 L 24.324219 35.75 L 24.9375 34.097656 C 25.0515 33.791656 25.008312 33.448687 24.820312 33.179688 C 24.634312 32.910687 24.327 32.75 24 32.75 L 19.765625 32.75 L 21.822266 26.75 z M 19.080078 34.75 L 22.564453 34.75 L 20.5625 40.152344 C 20.4485 40.458344 20.491688 40.801313 20.679688 41.070312 C 20.865688 41.339313 21.173 41.5 21.5 41.5 L 25.052734 41.5 L 24.285156 43.75 L 15.994141 43.75 L 19.080078 34.75 z M 23.585938 37.75 L 26.330078 37.75 L 25.945312 38.880859 L 25.734375 39.5 L 22.9375 39.5 L 23.585938 37.75 z"/></svg>