<?xml version="1.0" encoding="iso-8859-1"?>
<!-- Generator: Adobe Illustrator 25.2.3, SVG Export Plug-In . SVG Version: 6.00 Build 0)  -->
<svg version="1.1" id="Layer_1" xmlns="http://www.w3.org/2000/svg" xmlns:xlink="http://www.w3.org/1999/xlink" x="0px" y="0px"
	 viewBox="0 0 100 100" style="enable-background:new 0 0 100 100;" xml:space="preserve">
<path style="fill:none;stroke:#000000;stroke-width:2;stroke-miterlimit:10;" d="M62,84.973H38c-12.703,0-23-10.297-23-23v-24
	c0-12.703,10.297-23,23-23h24c12.703,0,23,10.297,23,23v24C85,74.675,74.703,84.973,62,84.973z"/>
<g>
	<path style="fill:none;stroke:#000000;stroke-linecap:round;stroke-linejoin:round;stroke-miterlimit:10;" d="M19.701,64.723
		c-0.111-0.749-0.178-1.512-0.196-2.286"/>
	<path style="fill:none;stroke:#000000;stroke-linecap:round;stroke-linejoin:round;stroke-miterlimit:10;" d="M22.767,72.473
		c-1.098-1.588-1.953-3.356-2.513-5.25"/>
	<path style="fill:none;stroke:#000000;stroke-linecap:round;stroke-linejoin:round;stroke-miterlimit:10;" d="M80.444,63.436
		c-0.739,9.518-8.721,17.037-18.428,17.037H37.983c-4.93,0-9.416-1.94-12.734-5.097"/>
</g>
<g>
	<path style="fill:none;stroke:#000000;stroke-linecap:round;stroke-linejoin:round;stroke-miterlimit:10;" d="M80.195,34.473
		c0.126,0.655,0.217,1.322,0.272,2"/>
	<path style="fill:none;stroke:#000000;stroke-linecap:round;stroke-linejoin:round;stroke-miterlimit:10;" d="M76.509,26.473
		c1.299,1.632,2.328,3.488,3.02,5.5"/>
	<path style="fill:none;stroke:#000000;stroke-linecap:round;stroke-linejoin:round;stroke-miterlimit:10;" d="M22.924,27.223
		c3.359-4.689,8.853-7.75,15.048-7.75h24.055c4.801,0,9.181,1.838,12.473,4.848"/>
</g>
<g>
	<path d="M71.536,40.229c0.423,0,0.843,0.031,1.254,0.086c2.016,0.256,3.939,1.336,5.231,2.953c1.315,1.621,1.871,3.699,1.98,5.705
		c0,1.104-0.895,2-2,2H64.957c0.052,0.42,0.132,0.834,0.24,1.235c0.45,1.59,1.426,2.975,2.787,3.812
		c0.677,0.42,1.44,0.703,2.235,0.845l0.602,0.081l0.61,0.024c0.242,0.005,0.493,0.008,0.744,0.008c0.203,0,0.407-0.002,0.606-0.005
		c0.9-0.017,1.774-0.066,2.628-0.175c0.851-0.12,1.711-0.324,2.604-0.537c0.059-0.014,0.117-0.021,0.175-0.021
		c0.341,0,0.649,0.233,0.732,0.578c0.085,0.355-0.098,0.712-0.418,0.859l-0.015,0.007c-1.699,0.781-3.757,1.233-5.649,1.253
		c-0.437,0.017-0.856,0.032-1.295,0.032c-0.044,0-0.088,0-0.132,0l-0.777-0.041l-0.773-0.112c-1.025-0.194-2.024-0.577-2.914-1.142
		c-1.806-1.118-3.044-3.013-3.524-4.998c-0.134-0.565-0.21-1.133-0.255-1.702H62c-0.552,0-1-0.448-1-1s0.448-1,1-1h1.206
		c0.077-0.763,0.207-1.519,0.434-2.254c0.579-1.914,1.731-3.676,3.341-4.931c0.809-0.619,1.745-1.104,2.754-1.348
		C70.33,40.292,70.936,40.229,71.536,40.229 M64.941,48.973H78c0.073-1.673-0.29-3.387-1.283-4.705
		c-0.952-1.344-2.498-2.201-4.147-2.451c-0.339-0.059-0.677-0.088-1.012-0.088c-1.32,0-2.587,0.45-3.63,1.287
		c-1.306,1.028-2.253,2.536-2.687,4.178C65.079,47.772,64.992,48.371,64.941,48.973 M71.536,39.229c-0.715,0-1.402,0.081-2.042,0.24
		c-1.094,0.265-2.145,0.778-3.12,1.524c-1.729,1.348-3.037,3.276-3.691,5.436c-0.148,0.478-0.265,0.988-0.355,1.543H62
		c-1.103,0-2,0.897-2,2s0.897,2,2,2h0.275c0.047,0.325,0.106,0.635,0.177,0.933c0.571,2.364,2.018,4.41,3.97,5.618
		c0.96,0.61,2.089,1.053,3.254,1.275l0.815,0.12c0.03,0.004,0.061,0.007,0.092,0.009l0.777,0.041l0.184,0.002
		c0.452,0,0.884-0.015,1.333-0.033c2.008-0.021,4.215-0.511,6.027-1.344c0.771-0.354,1.181-1.194,0.988-2.006
		c-0.189-0.793-0.89-1.347-1.704-1.347c-0.136,0-0.273,0.016-0.407,0.048c-0.833,0.198-1.693,0.404-2.512,0.52
		c-0.73,0.093-1.554,0.147-2.506,0.165c-0.191,0.003-0.389,0.005-0.588,0.005c-0.244,0-0.487-0.002-0.723-0.007l-0.545-0.022
		l-0.556-0.074c-0.644-0.116-1.278-0.355-1.841-0.704c-1.112-0.684-1.941-1.818-2.34-3.197H78c1.654,0,3-1.346,3-3
		c0-0.018,0-0.036-0.001-0.054c-0.136-2.5-0.897-4.672-2.202-6.281c-1.449-1.813-3.594-3.024-5.881-3.315
		C72.45,39.261,71.984,39.229,71.536,39.229L71.536,39.229z M66.083,47.973c0.035-0.178,0.075-0.346,0.121-0.508
		c0.393-1.487,1.223-2.782,2.343-3.664c0.877-0.704,1.915-1.073,3.011-1.073c0.279,0,0.562,0.025,0.841,0.073
		c1.471,0.223,2.739,0.967,3.502,2.043c0.625,0.83,0.996,1.914,1.087,3.127H66.083L66.083,47.973z"/>
</g>
<g>
	<path d="M43,40.973c0.552,0,1,0.448,1,1v6h-2v-6C42,41.421,42.448,40.973,43,40.973 M43,39.973c-1.103,0-2,0.897-2,2v6
		c0,0.552,0.448,1,1,1h2c0.552,0,1-0.448,1-1v-6C45,40.87,44.103,39.973,43,39.973L43,39.973z"/>
</g>
<g>
	<g>
		<path d="M56,40.973c0.552,0,1,0.448,1,1v6h-2v-6C55,41.421,55.448,40.973,56,40.973 M56,39.973c-1.103,0-2,0.897-2,2v6
			c0,0.552,0.448,1,1,1h2c0.552,0,1-0.448,1-1v-6C58,40.87,57.103,39.973,56,39.973L56,39.973z"/>
	</g>
	<g>
		<path d="M57,51.973v6c0,0.552-0.448,1-1,1s-1-0.448-1-1v-2.291c-0.447,0.627-0.969,1.194-1.567,1.686
			c-0.625,0.512-1.331,0.947-2.121,1.238c-0.656,0.258-1.439,0.367-2.134,0.367c-0.118,0-0.234-0.003-0.347-0.009
			c-1.594-0.062-3.289-0.455-4.682-1.564c-0.688-0.55-1.256-1.289-1.609-2.111c-0.358-0.822-0.509-1.698-0.542-2.55
			c-0.002-0.052,0.018-0.097,0.024-0.147C42.019,52.55,42,52.515,42,52.473v-0.5h2v0.5c0,0.037-0.017,0.068-0.021,0.103
			c0.004,0.03,0.02,0.055,0.021,0.085c0.001,0.021,0.001,0.042,0,0.062l0,0.015c-0.034,1.293,0.346,2.505,1.279,3.33
			c0.919,0.836,2.268,1.281,3.643,1.407c0.202,0.027,0.401,0.04,0.599,0.04c1.128,0,2.182-0.425,3.147-1.129
			c0.556-0.408,1.065-0.9,1.49-1.447c0.416-0.53,0.795-1.193,0.842-1.701v-1.266H57 M57,50.973h-2c-0.552,0-1,0.448-1,1v1.205
			c-0.033,0.189-0.217,0.621-0.628,1.144c-0.366,0.47-0.813,0.904-1.296,1.258c-0.849,0.62-1.709,0.935-2.555,0.935
			c-0.155,0-0.312-0.01-0.467-0.031c-1.329-0.122-2.416-0.531-3.102-1.155c-0.826-0.73-0.973-1.796-0.953-2.564
			c0.001-0.058,0.001-0.1,0-0.141c-0.001-0.016-0.002-0.033-0.004-0.051c0.003-0.031,0.004-0.065,0.004-0.1v-0.5
			c0-0.552-0.448-1-1-1h-2c-0.552,0-1,0.448-1,1v0.5c0,0.046,0.003,0.088,0.007,0.127c-0.006,0.052-0.009,0.112-0.006,0.178
			c0.042,1.076,0.252,2.055,0.624,2.911c0.415,0.967,1.073,1.831,1.901,2.493c1.382,1.1,3.154,1.699,5.267,1.782
			c0.115,0.006,0.249,0.01,0.386,0.01c0.897,0,1.785-0.155,2.5-0.436c0.8-0.295,1.591-0.751,2.332-1.35
			c0.107,1.003,0.958,1.786,1.989,1.786c1.103,0,2-0.897,2-2v-6C58,51.421,57.552,50.973,57,50.973L57,50.973z"/>
	</g>
</g>
<g>
	<path d="M23,51.973v6c0,0.552-0.448,1-1,1s-1-0.448-1-1v-6H23 M23,50.973h-2c-0.552,0-1,0.448-1,1v6c0,1.103,0.897,2,2,2
		s2-0.897,2-2v-6C24,51.421,23.552,50.973,23,50.973L23,50.973z"/>
</g>
<g>
	<g>
		<path d="M22,33.973c0.552,0,1,0.448,1,1v9.608c0.461-0.659,1.001-1.25,1.611-1.767c1.214-1.015,2.784-1.841,4.523-1.841
			c0.093,0,0.187,0.002,0.281,0.007c1.774,0.046,3.566,0.857,4.762,2.243c1.142,1.292,1.697,2.988,1.802,4.645
			C35.983,47.904,36,47.936,36,47.973h-2.01c-0.008-1.322-0.352-2.626-1.147-3.636c-0.826-1.072-2.12-1.765-3.515-1.883
			c-0.147-0.017-0.294-0.025-0.441-0.025c-1.217,0-2.451,0.561-3.499,1.351c-0.587,0.447-1.123,0.975-1.562,1.562
			c-0.429,0.577-0.795,1.26-0.824,1.859v0.774h-2v-13C21,34.421,21.448,33.973,22,33.973 M22,32.973c-1.103,0-2,0.897-2,2v13
			c0,0.552,0.448,1,1,1h2c0.552,0,1-0.448,1-1v-0.774c0.014-0.263,0.249-0.753,0.627-1.262c0.373-0.497,0.833-0.957,1.365-1.362
			c0.979-0.738,2.008-1.146,2.893-1.146c0.109,0,0.217,0.006,0.326,0.019c1.139,0.097,2.189,0.657,2.839,1.5
			c0.769,0.976,0.935,2.186,0.939,3.031c0.003,0.55,0.45,0.994,1,0.994H36c0.552,0,1-0.448,1-1c0-0.103-0.014-0.189-0.03-0.26
			c-0.134-1.969-0.86-3.813-2.044-5.152c-1.343-1.558-3.397-2.526-5.485-2.581c-0.086-0.005-0.196-0.008-0.307-0.008
			c-2.198,0-4,1.108-5.134,2.049v-7.049C24,33.87,23.103,32.973,22,32.973L22,32.973z"/>
	</g>
	<g>
		<path d="M36,51.973v6c0,0.552-0.448,1-1,1h0c-0.552,0-1-0.448-1-1v-6H36 M36,50.973h-2c-0.552,0-1,0.448-1,1v6
			c0,1.103,0.897,2,2,2c1.103,0,2-0.897,2-2v-6C37,51.421,36.552,50.973,36,50.973L36,50.973z"/>
	</g>
</g>
<g>
	<path d="M60.873,70.627c-0.375-0.38-0.898-0.628-1.763-0.65c-0.563-0.014-0.632,0.008-2.336,0.034v1.029v0.279v4.612l1.538,0
		v-1.266c0.306,0.001,0.639,0.006,0.812-0.009c2.089-0.107,2.377-1.825,2.385-2.292C61.522,71.552,61.235,70.993,60.873,70.627z
		 M58.312,73.325l-0.001,0.003v-1.999h0.001c0.778-0.138,1.557,0.141,1.519,1.021C59.796,73.133,59.139,73.394,58.312,73.325z"/>
	<path id="path7" d="M64.512,72.138l1.248,0.445c0.831,0.328,1.008,0.994,1,1.567c-0.018,1.33-1.079,1.828-1.925,1.9
		c-0.962,0.082-1.706-0.079-1.956-0.12v-1.447c0.761,0.231,1.647,0.222,1.946,0.105c0.226-0.088,0.398-0.223,0.384-0.4
		c-0.008-0.096-0.017-0.218-0.303-0.34l-1.151-0.418c-0.739-0.266-1.025-0.968-0.994-1.593c0.063-1.263,1.072-1.903,2.079-1.866
		c0.311,0.011,0.73,0.004,1.339,0.088v1.434c-0.682-0.159-1.002-0.156-1.355-0.112c-0.394,0.049-0.571,0.252-0.562,0.47
		c0.004,0.11,0.114,0.231,0.25,0.285"/>
	<polyline id="polyline9" points="41.019,72.205 42.699,72.205 42.698,69.973 44.259,69.973 44.259,75.973 42.699,75.973 
		42.699,73.564 41.019,73.564 41.019,75.973 39.457,75.973 39.457,69.973 41.019,69.973 41.019,72.205 	"/>
	<rect id="rect11" x="45.967" y="69.973" width="1.561" height="6"/>
	<rect id="rect11_1_" x="53.759" y="69.973" width="1.311" height="6"/>
	<polyline id="polyline15" points="50.82,74.611 52.43,74.611 52.43,75.972 49.259,75.973 49.259,69.973 50.82,69.973 50.82,74.611 
			"/>
	<path d="M37.368,70.631c-0.378-0.383-0.904-0.632-1.776-0.654c-0.567-0.015-0.637,0.008-2.353,0.034v1.138v0.179v4.644l1.551,0
		l0-1.275c0.307,0.001,0.639,0.007,0.816-0.009C37.71,74.58,38,72.85,38.008,72.38C38.022,71.563,37.732,71,37.368,70.631z
		 M34.79,73.348L34.79,73.348l-0.001-2.01c0.783-0.139,1.568,0.142,1.529,1.028C36.284,73.155,35.624,73.418,34.79,73.348z"/>
</g>
</svg>