<svg xmlns="http://www.w3.org/2000/svg" xmlns:xlink="http://www.w3.org/1999/xlink" viewBox="0,0,256,256" width="96px" height="96px" fill-rule="nonzero"><defs><linearGradient x1="32.29" y1="61.23" x2="32.29" y2="5" gradientUnits="userSpaceOnUse" id="color-1"><stop offset="0" stop-color="#000000"></stop><stop offset="1" stop-color="#000000"></stop></linearGradient><linearGradient x1="32" y1="12" x2="32" y2="62" gradientUnits="userSpaceOnUse" id="color-2"><stop offset="0" stop-color="#000000"></stop><stop offset="1" stop-color="#000000"></stop></linearGradient></defs><g fill="none" fill-rule="nonzero" stroke="none" stroke-width="none" stroke-linecap="butt" stroke-linejoin="miter" stroke-miterlimit="10" stroke-dasharray="" stroke-dashoffset="0" font-family="none" font-weight="none" font-size="none" text-anchor="none" style="mix-blend-mode: normal"><g transform="scale(4,4)"><path d="M48.02,55.68c-0.44,-1.34 -1.53,-2.39 -2.9,-2.75c-0.35,-0.11 -0.73,-0.16 -1.12,-0.16c-2.34,0 -4.23,1.89 -4.23,4.23c0,2.34 1.89,4.23 4.23,4.23c2.34,0 4.23,-1.89 4.23,-4.23c0,-0.46 -0.07,-0.91 -0.21,-1.32zM53.06,39.22l-0.43,-0.09c-0.01,0.03 -0.01,0.06 -0.02,0.09l-0.03,0.12c-1.21,5.41 -3.83,10.15 -7.46,13.59c-0.55,0.52 -1.14,1.02 -1.74,1.48l2.44,3.18c0.76,-0.59 1.5,-1.22 2.2,-1.91c4.18,-4.02 7.17,-9.49 8.52,-15.7l0.04,-0.76zM55.44,22.36l-0.09,-0.28c-3.97,-10.38 -13.13,-17.08 -23.35,-17.08c-10.22,0 -19.38,6.7 -23.35,17.08l-0.24,0.99l3.91,0.84l0.12,-0.54c3.4,-8.74 11.06,-14.37 19.56,-14.37c8.5,0 16.16,5.64 19.56,14.37l0.12,0.55l3.91,-0.86zM52,26h-6.49l-0.84,-1.63c-2.65,-5.16 -7.5,-8.37 -12.67,-8.37c-5.17,0 -10.02,3.21 -12.67,8.37l-0.84,1.63h-6.49c-2.21,0 -4,1.79 -4,4v3c0,2.21 1.79,4 4,4h5.57l0.68,2.06c2.18,6.54 7.7,10.94 13.75,10.94c6.05,0 11.57,-4.4 13.75,-10.94l0.68,-2.06h5.57c2.21,0 4,-1.79 4,-4v-3c0,-2.21 -1.79,-4 -4,-4zM25,42v-18l18,9z" fill="url(#color-1)" stroke="none" stroke-width="1"></path><path d="M48,57c0,2.209 -1.791,4 -4,4c-2.209,0 -4,-1.791 -4,-4c0,-2.209 1.791,-4 4,-4c2.209,0 4,1.791 4,4zM52,23h-4.658c-3.068,-5.972 -8.782,-10 -15.342,-10c-6.56,0 -12.274,4.028 -15.342,10h-4.658c-3.866,0 -7,3.134 -7,7v3c0,3.866 3.134,7 7,7h3.406c2.518,7.588 8.987,13 16.594,13c7.607,0 14.076,-5.412 16.594,-13h3.406c3.866,0 7,-3.134 7,-7v-3c0,-3.866 -3.134,-7 -7,-7z" fill="none" stroke="url(#color-2)" stroke-width="2"></path></g></g></svg>