<svg xmlns="http://www.w3.org/2000/svg" xmlns:xlink="http://www.w3.org/1999/xlink" viewBox="0,0,256,256" width="96px" height="96px" fill-rule="none"><defs><linearGradient x1="32" y1="9.083" x2="32" y2="54.676" gradientUnits="userSpaceOnUse" id="color-1"><stop offset="0" stop-color="#000000"></stop><stop offset="1" stop-color="#000000"></stop></linearGradient><linearGradient x1="32" y1="18.362" x2="32" y2="42.629" gradientUnits="userSpaceOnUse" id="color-2"><stop offset="0" stop-color="#000000"></stop><stop offset="1" stop-color="#000000"></stop></linearGradient></defs><g fill="none" fill-rule="none" stroke="none" stroke-width="1" stroke-linecap="butt" stroke-linejoin="miter" stroke-miterlimit="10" stroke-dasharray="" stroke-dashoffset="0" font-family="none" font-weight="none" font-size="none" text-anchor="none" style="mix-blend-mode: normal"><g transform="scale(4,4)"><path d="M50,55h-36c-2.8,0 -5,-2.2 -5,-5v-36c0,-2.8 2.2,-5 5,-5h36c2.8,0 5,2.2 5,5v36c0,2.8 -2.2,5 -5,5zM14,11c-1.7,0 -3,1.3 -3,3v36c0,1.7 1.3,3 3,3h36c1.7,0 3,-1.3 3,-3v-36c0,-1.7 -1.3,-3 -3,-3z" fill="url(#color-1)" fill-rule="nonzero"></path><path d="M44.6,32.7l-4.9,-0.2c-1.5,0 -3.2,0.5 -4.5,1.7c-1.7,1.6 -1.9,4.2 -1.2,5.9c0.7,1.7 2.7,2.7 4.7,2.3c1.6,-0.3 2.4,-1.8 2.3,-3.1c-0.1,-1.1 -0.8,-1.7 -1.6,-1.7c-0.8,0 -1.1,0.4 -1.2,0.8c-0.1,0.4 0.1,0.7 0.4,0.9c0.5,0.4 -0.4,1.6 -1.5,0.9c-0.6,-0.4 -1.1,-1.3 -1,-2.4c0.2,-1.5 1.4,-2.9 3.6,-2.9c2.3,0 3.9,1.4 4.4,3.5c0.7,2.6 -0.7,5.8 -3.9,7.5c-3.9,2.1 -10.5,1.9 -14.1,-1.9c-2.1,-2.2 -2.8,-5.1 -2.6,-7.8c0.1,-0.9 0.2,-1.8 0.4,-2.7c0.1,-0.3 -0.1,-0.6 -0.5,-0.7h-0.1h-6.1c-0.4,0 -0.8,-0.3 -0.8,-0.8c0,-0.1 0,-0.1 0,-0.2l1.9,-8.2c0.1,-0.5 0.6,-0.9 1.1,-0.9h6.4c0.3,0 0.6,-0.2 0.7,-0.5l1,-4.7c0.1,-0.5 0.6,-0.8 1,-0.8h8.8c0.4,0 0.7,0.3 0.7,0.7c0,0.1 0,0.1 0,0.2l-0.9,4.7c0,0.2 0.1,0.4 0.3,0.4h0.1h9.4c0.4,0 0.7,0.3 0.7,0.8c0,0.1 0,0.1 0,0.2l-2.1,8.2c-0.2,0.6 -0.5,0.9 -0.9,0.8z" fill="url(#color-2)" fill-rule="evenodd"></path></g></g></svg>